<?xml version="1.0" encoding="UTF-8" standalone="no"?>
<!DOCTYPE svg PUBLIC "-//W3C//DTD SVG 1.1//EN"
 "http://www.w3.org/Graphics/SVG/1.1/DTD/svg11.dtd">
<!-- Generated by graphviz version 2.38.0 (20140413.2041)
 -->
<!-- Title: G Pages: 1 -->
<svg width="730pt" height="124pt"
 viewBox="0.00 0.00 729.70 123.98" xmlns="http://www.w3.org/2000/svg" xmlns:xlink="http://www.w3.org/1999/xlink">
<g id="graph0" class="graph" transform="scale(1 1) rotate(0) translate(7.992 115.992)">
<title>G</title>
<polygon fill="#000000" stroke="none" points="-7.992,7.992 -7.992,-115.992 721.711,-115.992 721.711,7.992 -7.992,7.992"/>
<!-- index -->
<g id="node1" class="node"><title>index</title>
<ellipse fill="none" stroke="#c6c5fe" cx="340.286" cy="-90" rx="32.4942" ry="18"/>
<text text-anchor="middle" x="340.286" y="-86.3" font-family="Arial" font-size="14.00" fill="#c6c5fe">index</text>
</g>
<!-- ../node_modules/fun&#45;curry/src/index -->
<g id="node2" class="node"><title>../node_modules/fun&#45;curry/src/index</title>
<ellipse fill="none" stroke="#cfffac" cx="157.286" cy="-18" rx="157.072" ry="18"/>
<text text-anchor="middle" x="157.286" y="-14.3" font-family="Arial" font-size="14.00" fill="#cfffac">../node_modules/fun&#45;curry/src/index</text>
</g>
<!-- index&#45;&gt;../node_modules/fun&#45;curry/src/index -->
<g id="edge1" class="edge"><title>index&#45;&gt;../node_modules/fun&#45;curry/src/index</title>
<path fill="none" stroke="#757575" d="M314.067,-78.9707C286.875,-68.5696 243.635,-52.0295 209.445,-38.9517"/>
<polygon fill="#757575" stroke="#757575" points="210.654,-35.6666 200.063,-35.3629 208.153,-42.2046 210.654,-35.6666"/>
</g>
<!-- ../node_modules/stringify&#45;anything/src/index -->
<g id="node3" class="node"><title>../node_modules/stringify&#45;anything/src/index</title>
<ellipse fill="none" stroke="#cfffac" cx="523.286" cy="-18" rx="190.366" ry="18"/>
<text text-anchor="middle" x="523.286" y="-14.3" font-family="Arial" font-size="14.00" fill="#cfffac">../node_modules/stringify&#45;anything/src/index</text>
</g>
<!-- index&#45;&gt;../node_modules/stringify&#45;anything/src/index -->
<g id="edge2" class="edge"><title>index&#45;&gt;../node_modules/stringify&#45;anything/src/index</title>
<path fill="none" stroke="#757575" d="M366.505,-78.9707C393.516,-68.6387 436.364,-52.249 470.444,-39.2128"/>
<polygon fill="#757575" stroke="#757575" points="471.714,-42.4745 479.803,-35.6327 469.213,-35.9364 471.714,-42.4745"/>
</g>
</g>
</svg>
